# xmcd
#
# Track frame offsets: 
#        183
#        19065
#        38435
#        61018
#        76788
#        91965
#        111605
#        130788
#        153515
#        169685
#        185985
#        200145
#        214690
#
# Disc length: 3150 seconds
#
# Revision: 5
# Processed by: cddbd v1.5.2PL0 Copyright (c) Steve Scherf et al.
# Submitted via: ExactAudioCopy v0.99pb5
#
DISCID=ac0c4c0d
DTITLE=Various Artist - Playing The Blues
DYEAR=1994
DGENRE=Blues
TTITLE0=Gary Moore - Still Got The Blues (For You)
TTITLE1=John Lee Hooker - Boom Boom
TTITLE2=Pops Staples - Down In Mississippi
TTITLE3=John Hammond - Trouble Blues
TTITLE4=Terry Evans - Too Many Cooks
TTITLE5=Walter 'Wolfman' Washington - I'll Be Good
TTITLE6=Sanne - Back To My Baby
TTITLE7=Albert Collins - Iceman
TTITLE8=Jumpin' The Gunn - Green All Over
TTITLE9=Larry McCray - Witchin' Moon
TTITLE10=The Kinsey Report - Too Early To Tell
TTITLE11=Johnny Winter - She Likes To Boogie Real Low
TTITLE12=Duke Robillard - Rule The World
EXTD=
EXTT0=
EXTT1=
EXTT2=
EXTT3=
EXTT4=
EXTT5=
EXTT6=
EXTT7=
EXTT8=
EXTT9=
EXTT10=
EXTT11=
EXTT12=
PLAYORDER=
